PathFileType	4	(X/Y/Z)	 s07c0201.trc
DataRate	CameraRate	NumFrames	NumMarkers	Units	OrigDataRate	OrigDataStartFrame	OrigNumFrames
200	200	5	48	mm	200	501	2000
Frame#	Time	racr			lacr			c7			jug			rlel			rdr			llel			ldr			s2			lic			ric			lasi			rasi			rpsi			lpsi			rgt			lgt			rth1			rth2			rth3			rth4			rlfc			rmfc			rsh1			rsh2			rsh3			rsh4			rlmal			rcal			rtoe			rmt5			lth1			lth2			lth4			lth3			llfc			lmfc			lsh1			lsh2			lsh3			lsh4			llmal			lcal			ltoe			lmt5			SBIKE			LBIKE			RBIKE			
		X1	Y1	Z1	X2	Y2	Z2	X3	Y3	Z3	X4	Y4	Z4	X5	Y5	Z5	X6	Y6	Z6	X7	Y7	Z7	X8	Y8	Z8	X9	Y9	Z9	X10	Y10	Z10	X11	Y11	Z11	X12	Y12	Z12	X13	Y13	Z13	X14	Y14	Z14	X15	Y15	Z15	X16	Y16	Z16	X17	Y17	Z17	X18	Y18	Z18	X19	Y19	Z19	X20	Y20	Z20	X21	Y21	Z21	X22	Y22	Z22	X23	Y23	Z23	X24	Y24	Z24	X25	Y25	Z25	X26	Y26	Z26	X27	Y27	Z27	X28	Y28	Z28	X29	Y29	Z29	X30	Y30	Z30	X31	Y31	Z31	X32	Y32	Z32	X33	Y33	Z33	X34	Y34	Z34	X35	Y35	Z35	X36	Y36	Z36	X37	Y37	Z37	X38	Y38	Z38	X39	Y39	Z39	X40	Y40	Z40	X41	Y41	Z41	X42	Y42	Z42	X43	Y43	Z43	X44	Y44	Z44	X45	Y45	Z45	X46	Y46	Z46	X47	Y47	Z47	X48	Y48	Z48	
501	2.5050	412.920316	1485.098132	-63.524657	440.688374	1462.845511	-345.087103	385.274346	1536.526326	-214.929429	355.012798	1387.724035	-210.168365	475.631910	1151.917425	48.084119	692.825329	956.003597	-49.815271	482.649041	1155.092545	-521.330200	681.053694	943.430944	-424.935180	-135.905428	1206.689557	-258.494117	14.734674	1267.077893	-385.541766	15.835240	1273.881325	-103.516200	57.839854	1196.932273	-374.749939	42.966654	1225.988789	-127.830797	-116.824016	1250.559326	-209.803734	-104.637101	1256.746635	-318.560624	-7.265650	1158.711165	-60.571618	-27.801740	1107.420259	-420.130003	132.295186	1118.047301	-61.482957	219.375097	1110.848847	-72.495825	292.717276	1067.147149	-67.386332	228.340751	1140.143078	-94.611807	411.700114	981.767151	-100.260996	402.767262	964.489502	-207.167161	330.683389	867.591054	-75.742048	290.760689	790.709475	-91.827315	219.030279	740.264679	-85.484939	302.180223	782.477867	-131.004352	124.502595	641.525083	-80.530476	46.993885	645.563613	-110.723197	264.658714	451.372230	-122.893968	185.317457	476.415986	-52.926620	16.957560	994.563059	-435.041843	71.850503	926.280918	-444.706614	105.572961	940.503962	-438.836598	86.320467	838.075544	-439.312634	162.891513	683.743590	-403.560464	156.231218	664.791542	-310.460631	134.722009	540.806912	-425.203828	145.814013	457.627351	-405.706780	112.907934	373.356897	-410.059085	149.604267	460.937468	-363.570837	89.273119	239.437713	-401.558160	21.628137	200.861151	-370.843519	310.558382	181.423460	-351.835799	241.078717	148.136254	-414.312650	-259.316160	977.329691	-232.564621	-75.979530	83.435982	-435.520996	-81.833648	79.835421	-38.201583	
502	2.5100	410.264362	1485.968653	-60.825437	441.939307	1462.414488	-341.954236	385.404523	1537.149055	-212.847168	353.895442	1388.306894	-207.805810	475.416014	1152.341988	47.429854	693.384182	956.883311	-49.707931	483.593992	1155.938961	-522.078355	681.781002	943.644287	-425.822426	-136.163143	1207.560640	-260.271573	15.698379	1266.859025	-386.966725	14.916555	1275.414064	-104.933079	58.216408	1196.939810	-375.458315	42.216516	1227.349880	-129.020216	-117.202075	1251.652565	-211.846436	-104.482496	1257.321171	-320.728025	-8.073042	1161.208998	-61.544574	-27.596184	1107.501761	-420.982422	131.644400	1121.610069	-62.617690	218.842423	1114.824272	-73.755847	292.353175	1071.604690	-68.383130	227.585361	1144.011200	-96.158415	412.258885	986.855519	-100.961113	403.411204	969.129905	-207.899119	332.850537	871.645053	-76.283106	294.034624	794.201169	-91.990294	222.881689	742.776602	-85.585971	305.496016	785.874711	-131.160094	129.630350	642.377510	-80.212444	51.869047	644.730751	-110.292023	274.056559	455.571722	-122.908359	194.224152	478.779934	-52.778360	16.936934	994.652726	-435.240885	71.772829	926.175765	-444.217601	105.395404	940.472625	-439.023231	86.057777	838.068546	-439.310401	161.910973	683.016471	-402.865019	155.070365	664.372950	-309.614473	131.852223	540.563780	-424.401142	141.666250	457.325602	-404.952256	107.548354	373.491061	-409.350691	145.540244	460.485891	-362.838978	81.846862	240.070710	-401.190090	13.668618	202.273290	-370.502624	302.220539	178.607840	-351.796046	232.305872	146.580115	-414.176257	-259.397884	977.295268	-232.530558	-76.002497	83.441044	-435.509614	-81.844676	79.842560	-38.164812	
503	2.5150	407.569457	1486.923727	-58.138262	443.295616	1461.697790	-338.675717	385.644847	1537.294007	-210.410036	352.665722	1388.667788	-205.287981	474.935352	1153.000526	47.187620	693.872359	957.743919	-49.583557	484.655081	1156.656377	-522.703408	682.818553	944.751091	-427.067837	-136.690367	1208.464798	-261.876886	16.546151	1266.821792	-388.346651	13.761774	1276.917368	-106.189614	58.426072	1197.075771	-376.158406	41.270315	1228.745612	-130.069395	-117.801192	1252.894808	-213.731788	-104.315117	1258.182395	-322.979144	-9.137070	1163.676003	-62.474856	-27.585728	1107.592034	-421.681541	130.823270	1124.951077	-63.898174	218.009665	1118.454970	-75.053514	291.736945	1075.680201	-69.437858	226.511050	1147.198349	-97.820820	412.336308	991.281158	-101.667877	403.326670	973.473896	-208.122228	334.623539	875.169411	-76.943346	296.943389	796.831230	-92.159154	226.690896	744.449950	-85.621638	308.675839	788.669813	-131.201708	134.781798	642.410980	-79.800335	56.869706	643.173640	-109.654643	283.445693	459.313324	-122.871931	202.921577	480.246359	-52.911921	17.104404	994.873388	-435.336136	72.077762	926.497275	-443.844393	105.695571	940.849826	-439.050924	86.585119	838.469072	-438.820676	161.923287	682.808790	-402.153729	154.967912	664.529127	-308.715124	129.812485	540.845568	-423.443225	138.130600	457.498236	-404.102191	102.578409	374.282936	-408.635646	141.989414	460.721372	-362.010484	74.477578	241.259726	-400.912870	5.747325	204.414118	-370.156763	293.867867	176.250970	-351.754544	215.748043	152.081882	-420.191291	-259.495130	977.257297	-232.392879	-75.999819	83.448141	-435.513303	-81.876101	79.851259	-38.172334	
504	2.5200	405.073162	1487.497431	-55.885501	444.605300	1460.684054	-335.236864	386.025037	1537.092845	-207.895902	351.389529	1388.462346	-202.743567	474.506788	1153.672499	46.962536	694.317108	958.502880	-49.389369	485.855328	1157.600157	-523.908663	683.901739	945.812217	-427.863649	-137.415695	1209.372674	-263.288433	17.129255	1266.847542	-389.494661	12.349311	1278.448195	-107.399777	58.387963	1197.270774	-376.680816	40.107746	1230.166701	-131.129718	-118.578541	1254.211384	-215.518758	-104.561213	1258.871934	-324.524228	-10.479359	1166.104125	-63.389666	-27.758881	1107.743623	-422.367990	129.805399	1127.776029	-65.137900	216.982066	1121.834627	-76.300678	290.957849	1079.310116	-70.477218	225.349644	1150.439057	-99.220445	411.805466	995.107947	-102.287723	403.123399	977.044934	-208.923497	336.028865	878.057402	-77.436611	298.327640	798.808149	-93.767896	230.239637	745.634074	-85.531793	311.661231	790.730961	-131.215528	139.804088	641.867094	-79.272180	61.720765	640.938731	-108.902788	292.789955	462.830852	-122.844488	211.934077	481.727976	-52.663037	17.490289	995.155178	-435.349930	72.855894	927.067426	-443.250629	106.375886	941.621047	-438.706388	87.857961	839.189444	-438.016105	163.026234	682.978140	-401.315152	155.764044	665.111425	-307.668788	128.696574	541.485527	-422.445024	135.164922	457.989100	-403.134154	98.090273	375.524974	-407.891591	138.948124	461.091952	-360.993211	67.200029	243.275407	-400.881588	-2.339608	207.019238	-369.855788	285.429746	174.354194	-351.731921	207.071025	151.555835	-420.143640	-259.605461	977.229203	-232.270434	-76.026332	83.466821	-435.506088	-81.894669	79.847752	-38.168776	
505	2.5250	402.774718	1488.118392	-53.782864	445.857540	1459.372420	-331.824380	386.270852	1536.389956	-205.496127	350.001086	1388.070569	-200.384422	474.036682	1154.357591	46.791798	694.562657	959.338860	-49.226475	486.829500	1158.133585	-524.311858	684.872865	946.830915	-428.573882	-138.333087	1210.382522	-264.527241	17.476421	1266.920679	-390.552897	10.919588	1279.906035	-108.580406	58.094301	1197.364566	-377.020041	38.721366	1231.695503	-132.020138	-119.505537	1255.484923	-217.187633	-104.978972	1259.656638	-326.066992	-12.047720	1168.485728	-64.228176	-28.175412	1107.766571	-423.043295	128.579988	1130.290900	-66.191034	215.866257	1124.529084	-77.451605	289.851514	1082.340776	-71.597525	224.034119	1153.259011	-100.418230	410.840585	998.326338	-103.099537	402.468373	980.033643	-209.890507	336.956327	880.416090	-77.942926	300.836567	800.198984	-93.734405	233.498977	745.995367	-85.442408	314.267936	792.299662	-131.192248	144.750755	640.592406	-78.677033	66.642587	637.739361	-108.054357	302.344391	465.938774	-122.720221	221.011107	482.754524	-51.939049	18.074044	995.439007	-435.238875	74.111453	927.868609	-442.462610	107.437348	942.677322	-438.037788	89.891577	840.074253	-436.836652	165.272231	683.523608	-400.354675	157.059541	665.911695	-307.088205	128.349511	542.676487	-421.436613	132.894823	459.087952	-402.249320	94.041367	377.370027	-407.140089	136.582365	462.193595	-359.967211	60.062876	245.846427	-400.648072	-9.883175	210.629898	-369.491527	276.935805	172.825621	-351.646282	198.115357	151.688478	-420.036071	-259.709037	977.167052	-232.119554	-76.045056	83.485986	-435.488240	-81.883409	79.757183	-38.157567	
